# xmcd
#
# Track frame offsets:
#	150
#	16477
#	47822
#	67034
#
# Disc length: 1092 seconds
#
# Revision: 0
# Processed by: cddbd v1.5.1PL0 Copyright (c) Steve Scherf et al.
# Submitted via: dBpowerAMP V4.0
#
DISCID=32044204
DTITLE=Natasha Bedingfield - These words
DYEAR=2004
DGENRE=Soul
TTITLE0=These words
TTITLE1=These words (Bimbo Jones remix)
TTITLE2=The one that got away
TTITLE3=Single (Radio 1 Live Lounge recording)
EXTD=
EXTT0=
EXTT1=
EXTT2=
EXTT3=
PLAYORDER=
